<svg width="67" height="67" viewBox="0 0 67 67" fill="none" xmlns="http://www.w3.org/2000/svg">
<g clip-path="url(#clip0_3_71)">
<path d="M55.0156 55.0156L66.1824 43.849C66.1829 43.8485 66.1832 43.848 66.1837 43.8476C66.2482 43.7829 66.3093 43.7151 66.3673 43.6445C66.3939 43.6122 66.4169 43.5781 66.4418 43.5449C66.4715 43.5052 66.5022 43.4664 66.5298 43.425C66.5564 43.3852 66.5794 43.344 66.6038 43.3032C66.6261 43.2658 66.6496 43.2293 66.6702 43.1908C66.6925 43.1492 66.7113 43.1065 66.7313 43.064C66.7503 43.0238 66.7703 42.9843 66.7875 42.9432C66.8045 42.902 66.8184 42.8598 66.8333 42.818C66.8491 42.7739 66.866 42.7304 66.8796 42.6854C66.8923 42.6435 66.9016 42.6009 66.9122 42.5586C66.9238 42.5127 66.9367 42.4673 66.946 42.4206C66.9556 42.3715 66.9615 42.322 66.9686 42.2727C66.9743 42.232 66.9822 42.1919 66.9863 42.1506C67.0043 41.9674 67.0043 41.7827 66.9863 41.5995C66.9822 41.5583 66.9745 41.5183 66.9686 41.4775C66.9615 41.4281 66.9558 41.3785 66.946 41.3296C66.9367 41.2827 66.9238 41.2375 66.9122 41.1915C66.9016 41.1491 66.8923 41.1066 66.8796 41.0647C66.866 41.0197 66.8491 40.9761 66.8333 40.9322C66.8182 40.8903 66.8045 40.8481 66.7875 40.8069C66.7705 40.7657 66.7503 40.7263 66.7313 40.6861C66.7113 40.6437 66.6925 40.601 66.6702 40.5593C66.6496 40.5209 66.6261 40.4844 66.6038 40.4469C66.5794 40.4061 66.5564 40.3649 66.5298 40.3251C66.5022 40.2838 66.4715 40.245 66.4418 40.2052C66.4169 40.172 66.3939 40.138 66.3673 40.1057C66.3093 40.035 66.2482 39.9671 66.1837 39.9026C66.1832 39.902 66.1829 39.9015 66.1824 39.9011L55.0158 28.7345C53.9256 27.6443 52.1579 27.6443 51.0677 28.7345C49.9775 29.8247 49.9775 31.5923 51.0677 32.6825L57.4687 39.0835L25.125 39.0835C23.5832 39.0835 22.3334 40.3333 22.3334 41.8751C22.3334 43.4169 23.5832 44.6668 25.125 44.6668H57.4686L51.0676 51.0677C49.9774 52.1579 49.9774 53.9256 51.0676 55.0158C52.1579 56.1058 53.9254 56.1058 55.0156 55.0156Z" fill="#797D7F"/>
<path d="M15.9324 34.3176L9.5314 27.9166L41.875 27.9166C43.4168 27.9166 44.6666 26.6668 44.6666 25.125C44.6666 23.5832 43.4168 22.3334 41.875 22.3334L9.5314 22.3334L15.9324 15.9324C17.0226 14.8422 17.0226 13.0746 15.9324 11.9844C14.8422 10.8942 13.0745 10.8942 11.9844 11.9844L0.817738 23.151C0.817215 23.1515 0.816822 23.152 0.816299 23.1526C0.751919 23.2171 0.6908 23.285 0.632832 23.3555C0.606266 23.3878 0.583233 23.422 0.558239 23.4552C0.528534 23.4949 0.497787 23.5338 0.470173 23.575C0.443611 23.6148 0.420578 23.656 0.39624 23.6968C0.373863 23.7342 0.350433 23.7707 0.329891 23.8092C0.307644 23.8508 0.288803 23.8936 0.26878 23.9361C0.249805 23.9762 0.22979 24.0157 0.212776 24.0568C0.195766 24.098 0.181889 24.1402 0.166969 24.182C0.151138 24.2261 0.134254 24.2696 0.120647 24.3146C0.107952 24.3565 0.0986671 24.399 0.0880661 24.4414C0.0764198 24.4873 0.0635986 24.5327 0.054306 24.5796C0.0446243 24.6287 0.0388641 24.6781 0.0317993 24.7275C0.0260391 24.7681 0.0181885 24.8083 0.0141296 24.8495C-0.00392914 25.0327 -0.00392914 25.2174 0.0141296 25.4006C0.0181885 25.4418 0.0259094 25.4819 0.0317993 25.5227C0.0388641 25.572 0.0446205 25.6216 0.0544357 25.6706C0.0637245 25.7174 0.0765495 25.7627 0.0881958 25.8086C0.098793 25.851 0.108089 25.8935 0.120781 25.9354C0.134392 25.9804 0.151272 26.024 0.167107 26.068C0.182156 26.1098 0.195892 26.152 0.212906 26.1932C0.229916 26.2343 0.249935 26.2737 0.268909 26.3137C0.288929 26.3563 0.307777 26.3992 0.330154 26.4408C0.3507 26.4791 0.374119 26.5156 0.396366 26.5529C0.420708 26.5938 0.443874 26.6351 0.470436 26.6749C0.498051 26.7161 0.528664 26.7549 0.558239 26.7944C0.583233 26.8277 0.6064 26.8619 0.632965 26.8943C0.690414 26.9644 0.751129 27.0318 0.815117 27.0959C0.816032 27.0969 0.816948 27.098 0.817863 27.0989L11.9845 38.2655C13.0747 39.3557 14.8423 39.3557 15.9325 38.2655C17.0227 37.1753 17.0226 35.4079 15.9324 34.3176Z" fill="#797D7F"/>
</g>
<defs>
<clipPath id="clip0_3_71">
<rect width="67" height="67" fill="white" transform="matrix(0 1 -1 0 67 0)"/>
</clipPath>
</defs>
</svg>
